<?xml version="1.0" encoding="UTF-8"?>
<svg id="uuid-090ece07-cf9f-4238-904c-fb09f1dbe42e" data-name="Calque 2" xmlns="http://www.w3.org/2000/svg" viewBox="0 0 1203.996797765659721 287.375734284026294">
  <g id="uuid-481070d3-e407-42aa-9214-e4c5646ad1a6" data-name="Calque 2">
    <g>
      <path d="M113.491024597820797,262.518594882724756c-50.042787252839844,0-86.017344206909911-39.248114844158408-86.017344206909911-93.866967175740683,0-54.624615637726492,35.974556954070067-93.215713581408636,86.345852657150317-93.215713581408636,44.481196823369828,0,70.97223351663888,30.090221380519324,64.75650783978017,74.24290975366057h27.148053593749864c8.832266666469877-57.235393321191623-31.724118672491386-99.100049154959379-92.23306988377044-99.100049154959379C48.731635104961242,50.578774724276627,0,97.676512537263989,0,168.651627706984073c0,70.969351863574957,48.406008307791126,118.724106577042221,113.162516147580391,118.724106577042221,57.5639017714293,0,96.486389818419411-38.268352799592321,104.010385990090072-89.619410547233201h-28.4563240885509c-7.523996171668841,37.939844349350096-34.340659662098915,64.762271145931663-75.225553451298765,64.762271145931663Z"/>
      <path d="M311.022579394981221,115.992299464537609c-47.754754713470902,0-79.478873385960469,34.343541315173752-79.478873385960469,85.688835756671324,0,51.35105774763997,31.724118672489567,85.69459906281736,79.478873385960469,85.69459906281736,47.423364610149292,0,79.147483282638859-34.34354131517739,79.147483282638859-85.69459906281736,0-51.345294441497572-31.724118672489567-85.688835756671324-79.147483282638859-85.688835756671324ZM311.022579394981221,264.478118971858748c-31.727000325570771,0-52.987836692691417-25.17988454539136-52.987836692691417-62.796983750649815,0-37.611335899115147,21.260836367120646-62.796983750652544,52.987836692691417-62.796983750652544,31.398491875319451,0,52.656446589369807,25.185647851537396,52.656446589369807,62.796983750652544,0,37.617099205258455-21.257954714050356,62.796983750649815-52.656446589369807,62.796983750649815Z"/>
      <rect x="412.45460629866102" y="54.503586208690649" width="24.857139401299719" height="228.947336590919804"/>
      <path d="M537.318795159410001,264.478118971858748c-30.090221380518415,0-49.385770352359032-19.295548971840617-52.656446589369807-53.310581836776691h120.360885522080935c14.390975442858689-55.927122826387858-12.757078150891175-95.175237670544448-66.067659987671504-95.175237670544448-49.060143555188915,0-81.112770677918888,33.358015964460719-81.112770677918888,85.688835756671324,0,52.330819792207876,31.069983425089958,85.69459906281736,79.804500183119671,85.69459906281736,36.960082304780371,0,64.105254245459946-19.624057422082842,73.917282956499548-53.310581836781239h-27.148053593749864c-6.541352474028827,18.638532071367081-24.528630951059313,30.412966524613694-47.09773781299009,30.412966524613694ZM537.9758120598799,138.232897876226161c31.398491875330365,0,48.406008307800221,19.295548971842436,45.132450417710061,50.365532396929666h-98.120287110388745c3.924811484419479-31.721237019418368,23.223242109330386-50.365532396929666,52.987836692678684-50.365532396929666Z"/>
      <path d="M708.490068271450582,264.478118971858748c-31.727000325570771,0-52.987836692680503-25.17988454539136-52.987836692680503-62.796983750649815,0-37.611335899115147,20.93232791688024-62.796983750652544,53.967598737250228-62.796983750652544,31.069983425089958,0,47.09773781299009,21.917853267596911,41.210520586360872,57.56390177143021h26.491036693269052c8.178131419070269-45.789467318181778-17.65877002679008-80.45575377744899-67.047422032230315-80.45575377744899-49.714278802599438,0-81.112770677929802,34.343541315173752-81.112770677929802,85.688835756671324,0,51.35105774763997,31.724118672500481,85.69459906281736,79.478873385960469,85.69459906281736,45.460958867950467,0,70.646606719479678-31.398491875328546,76.859450743269917-62.796983750654363h-27.14517194067048c-6.869860924260138,24.200122500825273-24.857139401299719,39.899368438486817-49.714278802599438,39.899368438486817Z"/>
      <path d="M908.286602383401259,37.611335899115147c10.466163958439211,0,18.644295377509479-8.178131419070269,18.644295377509479-18.967040521603849,0-10.466163958441939-8.178131419070269-18.644295377511298-18.644295377509479-18.644295377511298-10.791790755600232,0-18.967040521600211,8.178131419069359-18.967040521600211,18.644295377511298,0,10.78890910253358,8.175249765999979,18.967040521603849,18.967040521600211,18.967040521603849Z"/>
      <path d="M1057.089403728670732,65.413524740261892l-49.060143555199829,134.094844064463359-49.060143555190734-134.094844064463359h-128.17881030711942V23.220360456257367h-24.857139401299719v42.193164284004524h-29.436086133109711v22.56910686192623h29.436086133109711v94.518220770070002c0,33.692287720842614,14.390975442860508,50.371295703072974,43.498553125738908,50.371295703072974,8.506639869310675,0,17.664533332941573-1.636778945042352,24.2058858069704-4.253319934652609v-22.569106861927139c-6.541352474028827,2.616540989611167-13.411213398288965,3.924811484415841-19.952565872310515,3.924811484415841-16.679007982238545,0-22.894733659099074-7.521114518594004-22.894733659099074-27.796425535003436v-94.195475625975632h43.836426948460939v.046826862423586h21.234181076208188v140.917878126303549h24.857139401290624V88.029458464611707h20.170490885910112l52.42411331042058,140.917878126303549h28.453442435478792l60.834578008440076-163.533811850653365h-25.511274648699327Z"/>
      <path d="M1135.96673203579121,115.992299464537609c-41.210520586369967,0-67.704438932711128,26.165409896104393-63.122610547819932,60.508951211277235h26.491036693269052c-3.270676237008956-22.240598411687643,11.120299205849733-37.617099205258455,36.631573854550879-37.617099205258455,29.764594583359212,0,43.172926328579706,17.664533332943392,43.172926328579706,51.679566197879467v.651253594331138c-13.408331745220494-3.267794583941395-28.127815638321408-5.233081979221424-41.539029036610373-5.233081979221424-45.132450417710061,0-73.588774506250047,20.609582772790418-73.588774506250047,52.987836692683231,0,28.78195088571465,22.894733659079066,48.406008307797492,56.255631276620989,48.406008307797492,26.819545143509458,0,47.423364610149292-12.754196497819066,59.197799063398634-33.686524414701125v29.761712930285285h24.531512604129603v-92.558696680938738c0-47.42624626322322-23.223242109328567-74.899926654134106-68.030065729868511-74.899926654134106ZM1122.884027087740833,265.135135872334104c-20.278192669480632,0-32.381135572970379-9.157893463636356-32.381135572970379-25.185647851536487,0-20.275311016410342,18.644295377509479-32.378253919892813,49.063025208270119-32.378253919892813,14.062466992620102,0,27.799307188081002,1.636778945041442,39.573741641330344,4.904573528983747-2.616540989620262,30.418729830757002-24.857139401299719,52.659328242445554-56.255631276630083,52.659328242445554Z"/>
    </g>
  </g>
</svg>